<?xml version="1.0" encoding="UTF-8"?>
<svg width="251px" height="50px" viewBox="0 0 251 50" version="1.1" xmlns="http://www.w3.org/2000/svg" xmlns:xlink="http://www.w3.org/1999/xlink">
    <!-- Generator: Sketch 62 (91390) - https://sketch.com -->
    <title>Group 2</title>
    <desc>Created with Sketch.</desc>
    <g id="07_Lundeweb" stroke="none" stroke-width="1" fill="none" fill-rule="evenodd">
        <g id="2-liferay" transform="translate(-746.000000, -484.000000)" fill="#FFFFFF">
            <g id="Group-2" transform="translate(746.944000, 484.000000)">
                <path d="M6.576,36 C9.768,36 11.832,34.008 11.832,31.248 C11.832,29.136 10.488,27.624 8.832,27.216 C10.248,26.736 11.304,25.32 11.304,23.568 C11.304,20.928 9.432,18.984 6.12,18.984 L-5.68434189e-14,18.984 L-5.68434189e-14,36 L6.576,36 Z M5.616,26.016 L3.264,26.016 L3.264,21.768 L5.592,21.768 C7.2,21.768 8.04,22.584 8.04,23.88 C8.04,25.176 7.128,26.016 5.616,26.016 Z M5.952,33.24 L3.264,33.24 L3.264,28.752 L6,28.752 C7.656,28.752 8.52,29.688 8.52,31.032 C8.52,32.4 7.56,33.24 5.952,33.24 Z M18.432,40.656 L25.848,24.192 L22.44,24.192 L19.536,31.104 L16.392,24.192 L12.816,24.192 L17.832,34.512 L15.048,40.656 L18.432,40.656 Z" id="By" fill-rule="nonzero"></path>
                <path d="M162.847362,10.6382979 C167.237161,10.6382979 170.181,13.6760119 170.181,18.2084741 L170.181,18.2084741 L170.181,24.2490784 C170.181,28.7788618 167.237161,31.8165759 162.847362,31.8165759 L162.847362,31.8165759 L155.698038,31.8246122 L155.698038,33.300609 C155.698038,34.2676414 156.16791,34.741782 157.099867,34.741782 L157.099867,34.741782 L162.665644,34.741782 C167.006119,34.741782 169.949958,37.7741385 169.949958,42.303922 L169.949958,42.303922 L169.949958,42.7807413 C169.796795,47.1149753 166.90228,50 162.626704,50 L162.626704,50 L150.267252,50 L150.267252,43.9701108 L161.92579,43.9701108 C162.80323,43.9701108 163.260122,43.5468667 163.31983,42.705736 L163.31983,42.705736 L163.31983,41.7413824 C163.31983,40.7797075 162.85515,40.2921731 161.920598,40.2921731 L161.920598,40.2921731 L156.128971,40.2921731 C151.783303,40.2921731 148.881,37.2464228 148.881,32.7139605 L148.881,32.7139605 L148.881,18.2084741 C148.881,13.6760119 151.866375,10.6382979 156.212042,10.6382979 L156.212042,10.6382979 Z M250.056,0 L250.056,28.4972496 C250.056,33.0928792 247.106049,36.1702128 242.751359,36.1702128 L242.751359,36.1702128 L236.102263,36.1702128 C231.705951,36.1702128 228.756,33.0928792 228.756,28.4972496 L228.756,28.4972496 L228.756,18.4286922 C228.756,13.8330625 231.705951,10.7530129 236.102263,10.7530129 L236.102263,10.7530129 L243.26643,10.7530129 L243.26643,0 L250.056,0 Z M227.691,10.6382979 L227.691,16.767265 L222.640201,16.767265 C221.640098,16.767265 221.131666,17.2575823 221.131666,18.2382171 L221.131666,18.2382171 L221.131666,36.1702128 L213.846,36.1702128 L213.846,18.3362805 C213.846,13.7272973 217.01113,10.6382979 221.737873,10.6382979 L221.737873,10.6382979 L227.691,10.6382979 Z M187.221,20.212766 L187.221,26.043101 L180.240624,26.0459148 C179.291376,26.0459148 178.821997,26.5524111 178.821997,27.5654037 L178.821997,27.5654037 L178.821997,28.5108634 C178.882308,29.394418 179.343821,29.8390092 180.230135,29.8390092 L180.230135,29.8390092 L187.221,29.8390092 L187.221,36.1702128 L179.713555,36.1702128 C175.394743,36.1702128 172.473578,33.1424905 172.318867,28.5924656 L172.318867,28.5924656 L172.311,28.5924656 L172.311,28.1535021 C172.311,23.3924371 175.287231,20.212766 179.674222,20.212766 L179.674222,20.212766 L187.221,20.212766 Z M202.277865,10.6382979 C206.633087,10.6382979 209.586,13.7325793 209.586,18.3467151 L209.586,18.3467151 L209.586,36.1702128 L195.627957,36.1702128 C191.345582,36.1702128 188.447305,33.2341926 188.293805,28.8219765 L188.293805,28.8219765 L188.286,28.8219765 L188.286,28.3963081 C188.286,23.7794438 191.236311,20.6960769 195.588931,20.6960769 L195.588931,20.6960769 L202.792999,20.6960769 L202.792999,18.2512125 C202.792999,17.2661723 202.324695,16.7777452 201.39069,16.7777452 L201.39069,16.7777452 L190.159214,16.7777452 L190.159214,10.6382979 Z M139.514379,10.6382979 C143.846105,10.6382979 146.751,13.7322487 146.751,18.3486197 L146.751,18.3486197 L146.751,26.1025951 L132.131746,26.1025951 L132.131746,28.56084 C132.131746,29.5430466 132.595402,30.0341499 133.51759,30.0341499 L133.51759,30.0341499 L144.489076,30.0341499 L144.489076,36.1702128 L132.641511,36.1702128 C128.350771,36.1702128 125.451,33.0789903 125.451,28.4626193 L125.451,28.4626193 L125.451,18.3486197 C125.451,13.7322487 128.350771,10.6382979 132.641511,10.6382979 L132.641511,10.6382979 Z M123.321,0 L123.321,36.1702128 L109.370762,36.1702128 C104.96871,36.1702128 102.021,33.0903944 102.021,28.4951098 L102.021,28.4951098 L102.021,18.4273084 C102.021,13.8347397 104.96871,10.7549214 109.370762,10.7549214 L109.370762,10.7549214 L116.533202,10.7549214 L116.533202,0 L123.321,0 Z M91.5222511,10.6382979 C95.8764091,10.6382979 98.826,13.7272973 98.826,18.3362805 L98.826,18.3362805 L98.826,36.1702128 L92.037259,36.1702128 L92.037259,18.2382171 C92.037259,17.2575823 91.56907,16.767265 90.6326919,16.767265 L90.6326919,16.767265 L85.7193081,16.767265 C84.78293,16.767265 84.3121399,17.2575823 84.3121399,18.2382171 L84.3121399,18.2382171 L84.3121399,36.1702128 L77.526,36.1702128 L77.526,18.3362805 C77.526,13.7272973 80.4755909,10.6382979 84.8765678,10.6382979 L84.8765678,10.6382979 Z M59.819741,10.6382979 L59.819741,28.5702936 C59.819741,29.5509283 60.28793,30.0412457 61.2243081,30.0412457 L61.2243081,30.0412457 L66.140293,30.0412457 C67.07407,30.0412457 67.542259,29.5509283 67.542259,28.5702936 L67.542259,28.5702936 L67.542259,10.6382979 L74.331,10.6382979 L74.331,28.4722301 C74.331,33.0812134 71.3840101,36.1702128 66.9804322,36.1702128 L66.9804322,36.1702128 L60.3347489,36.1702128 C55.9805909,36.1702128 53.031,33.0812134 53.031,28.4722301 L53.031,28.4722301 L53.031,10.6382979 L59.819741,10.6382979 Z M44.432087,0 L44.4292609,28.5940196 C44.4292609,29.5715929 44.9379565,30.063095 45.9553478,30.063095 L45.9553478,30.063095 L50.901,30.063095 L50.901,36.1702128 L45.0425217,36.1702128 C40.2607826,36.1702128 37.056,33.0908568 37.056,28.4989777 L37.056,28.4989777 L37.056,0 L44.432087,0 Z M116.541007,16.8629562 L110.211106,16.8656721 C109.277101,16.8656721 108.808798,17.3518163 108.808798,18.3322523 L108.808798,18.3322523 L108.808798,28.5955977 C108.808798,29.5706019 109.277101,30.0676097 110.211106,30.0676097 L110.211106,30.0676097 L116.541007,30.0676097 L116.541007,16.8629562 Z M243.269031,16.8642225 L236.945106,16.8642225 C236.008614,16.8642225 235.542969,17.3531193 235.542969,18.3309128 L235.542969,18.3309128 L235.542969,28.5950289 C235.542969,29.5728225 236.008614,30.0535709 236.945106,30.0535709 L236.945106,30.0535709 L242.134835,30.0535709 C242.88663,29.9612238 243.269031,29.4696109 243.269031,28.5950289 L243.269031,28.5950289 L243.269031,16.8642225 Z M202.795601,26.3498257 L196.145692,26.3525544 C195.211687,26.3525544 194.745985,26.8437101 194.745985,27.8260217 L194.745985,27.8260217 L194.745985,28.7428458 C194.803222,29.5996398 195.263721,30.0307655 196.140489,30.0307655 L196.140489,30.0307655 L202.795601,30.0307655 L202.795601,26.3498257 Z M162.006265,16.6655083 L157.099867,16.6655083 C156.16791,16.6655083 155.70323,17.1476851 155.70323,18.1120388 L155.70323,18.1120388 L155.70323,25.7866867 L162.006265,25.7866867 C162.940817,25.7866867 163.408093,25.3071886 163.408093,24.3455137 L163.408093,24.3455137 L163.408093,18.1120388 C163.408093,17.1476851 162.940817,16.6655083 162.006265,16.6655083 L162.006265,16.6655083 Z M138.68441,16.7770891 L133.51759,16.7770891 C132.595402,16.7770891 132.131746,17.2681924 132.131746,18.250399 L132.131746,18.250399 L132.131746,20.4603639 L140.067693,20.4603639 L140.067693,18.250399 C140.067693,17.2681924 139.604037,16.7770891 138.68441,16.7770891 L138.68441,16.7770891 Z M187.221,10.6382979 L187.221,17.0212766 L173.376,17.0212766 L173.376,10.6382979 L187.221,10.6382979 Z" id="Combined-Shape-Copy-2" transform="translate(143.556000, 25.000000) rotate(-360.000000) translate(-143.556000, -25.000000) "></path>
            </g>
        </g>
    </g>
</svg>